#!OML:ASF E:\acrobat2\Project_11_07_03\Capture day 1\Session 1\Acrobat.ASF
:FULLY-SPECIFIED
:DEGREES
543
root 8.34026 18.0505 11.153 -169.963 -12.5038 -179.836
lowerback 2.68776 5.41822 3.56081
upperback 3.03055 7.13918 -4.59254
thorax 2.67783 3.6526 -6.73663
lowerneck 4.85332 21.4667 5.35945
upperneck 1.79345 28.9273 -7.7561
head 1.83006 14.5264 -2.76413
rclavicle 5.1684e-015 1.35174e-014
rhumerus -41.9323 -14.4238 -62.965
rradius 103.195
rwrist -18.5025
rhand -7.19843 -29.7627
rfingers 7.12502
rthumb 18.68 -58.8858
lclavicle 5.1684e-015 1.35174e-014
lhumerus -50.9714 -47.5194 94.2686
lradius 67.4082
lwrist 19.7437
lhand -9.71112 -6.84702
lfingers 7.12502
lthumb 16.2618 22.491
rfemur -26.1103 8.32893 18.7666
rtibia 18.1425
rfoot -12.1483 -16.8048
rtoes -7.3376
lfemur -19.2611 -1.56935 -18.106
ltibia 45.7463
lfoot 23.5252 -10.773
ltoes 27.2706
544
root 8.35782 18.0804 11.3486 -169.857 -12.5437 -179.838
lowerback 2.92331 5.37933 3.5649
upperback 3.01977 7.08657 -4.60692
thorax 2.52968 3.62155 -6.78015
lowerneck 4.65344 21.5417 5.17136
upperneck 1.75771 29.0154 -7.75192
head 1.82707 14.5666 -2.71779
rclavicle 6.30147e-014 -7.95139e-016
rhumerus -41.654 -14.8051 -63.6409
rradius 103.131
rwrist -18.1435
rhand -7.96618 -29.4776
rfingers 7.12502
rthumb 17.9414 -58.6701
lclavicle 6.30147e-014 -7.95139e-016
lhumerus -50.5084 -47.9746 93.9286
lradius 67.524
lwrist 19.6008
lhand -9.05353 -6.31619
lfingers 7.12502
lthumb 16.8949 22.9689
rfemur -25.8506 8.72651 19.0707
rtibia 17.8529
rfoot -12.3042 -19.1138
rtoes -9.28394
lfemur -20.3968 -1.19159 -18.2019
ltibia 46.4304
lfoot 23.6117 -10.8085
ltoes 27.5863
545
root 8.37149 18.0987 11.5491 -169.812 -12.4371 -179.756
lowerback 3.32293 5.48202 3.83337
upperback 2.98916 7.23134 -4.67644
thorax 2.34171 3.69625 -7.04332
lowerneck 5.03069 21.4533 5.21487
upperneck 1.24837 28.8971 -8.07928
head 1.65047 14.5262 -2.89992
rclavicle 3.10104e-014 -3.02153e-014
rhumerus -41.5256 -15.3728 -64.258
rradius 102.992
rwrist -17.7247
rhand -8.76489 -29.125
rfingers 7.12502
rthumb 17.1727 -58.3862
lclavicle 3.10104e-014 -3.02153e-014
lhumerus -49.9533 -48.6977 93.6161
lradius 67.6778
lwrist 19.5509
lhand -8.36662 -6.12454
lfingers 7.12502
lthumb 17.5561 23.1028
rfemur -26.0757 6.83658 19.4566
rtibia 17.2347
rfoot -12.1374 -17.6459
rtoes 2.77442
lfemur -21.5918 -0.795693 -18.2618
ltibia 47.2006
lfoot 23.6018 -10.8666
ltoes 27.0558
546
root 8.37452 18.0963 11.7477 -169.983 -12.1762 -179.229
lowerback 3.76777 5.61394 4.56229
upperback 3.02521 7.43886 -4.57537
thorax 2.24866 3.81842 -7.3853
lowerneck 4.87789 21.4902 5.31195
upperneck 1.5114 28.9704 -8.49424
head 1.85557 14.557 -2.97667
rclavicle 7.63333e-014 -7.95139e-015
rhumerus -41.2305 -15.6959 -64.8154
rradius 102.751
rwrist -17.5308
rhand -9.7446 -28.7243
rfingers 7.12502
rthumb 16.2296 -58.0649
lclavicle 7.63333e-014 -7.95139e-015
lhumerus -49.2268 -49.1942 93.3138
lradius 67.802
lwrist 19.5599
lhand -7.65296 -6.29048
lfingers 7.12502
lthumb 18.2427 22.8741
rfemur -25.9696 5.07673 20.3731
rtibia 16.2757
rfoot -11.0603 -15.6197
rtoes 9.35123
lfemur -22.7052 -0.449267 -17.9037
ltibia 48.1099
lfoot 23.3933 -10.98
ltoes 26.1314
547
root 8.37433 18.0983 11.9467 -170 -11.8438 -178.409
lowerback 3.95455 5.68919 5.46793
upperback 2.98775 7.58648 -4.38554
thorax 2.22827 3.91772 -7.71028
lowerneck 4.36352 21.4484 5.44722
upperneck 2.31877 28.9498 -8.5965
head 2.25001 14.5184 -2.89682
rclavicle 8.07066e-014 -3.97569e-014
rhumerus -40.8198 -15.6271 -65.4944
rradius 102.464
rwrist -17.4158
rhand -10.733 -28.3782
rfingers 7.12502
rthumb 15.2777 -57.794
lclavicle 8.07066e-014 -3.97569e-014
lhumerus -48.4343 -49.2681 92.8983
lradius 67.7927
lwrist 19.3915
lhand -7.20986 -6.64391
lfingers 7.12502
lthumb 18.669 22.4802
rfemur -25.2974 3.52478 22.1233
rtibia 15.1816
rfoot -9.24853 -14.5687
rtoes 3.59482
lfemur -24.0907 -0.114715 -17.2286
ltibia 49.0531
lfoot 23.2056 -11.0126
ltoes 25.4278
548
root 8.37509 18.0844 12.1417 -169.855 -11.473 -177.8
lowerback 3.98371 5.79758 6.07955
upperback 2.916 7.76441 -4.26997
thorax 2.23838 4.02449 -7.93288
lowerneck 4.0437 21.3474 5.64373
upperneck 2.9226 28.8454 -8.61648
head 2.53529 14.4461 -2.84728
rclavicle 9.22361e-014 -5.24792e-014
rhumerus -40.5285 -15.5528 -66.1489
rradius 102.154
rwrist -17.4075
rhand -11.4337 -28.0836
rfingers 7.12502
rthumb 14.6027 -57.5496
lclavicle 9.22361e-014 -5.24792e-014
lhumerus -47.6819 -49.228 92.435
lradius 67.8398
lwrist 19.0382
lhand -6.78036 -6.36282
lfingers 7.12502
lthumb 19.0821 22.7211
rfemur -24.8533 1.99347 23.6671
rtibia 14.4477
rfoot -7.94007 -13.3299
rtoes -2.90668
lfemur -25.6614 0.243267 -16.7496
ltibia 49.9796
lfoot 23.3522 -10.8882
ltoes 25.0075
549
root 8.37755 18.1001 12.324 -170.016 -10.9226 -177.473
lowerback 4.29253 5.98923 6.3589
upperback 3.02179 8.03483 -4.20919
thorax 2.2605 4.16804 -8.04636
lowerneck 4.39711 21.3349 5.72845
upperneck 2.19442 28.8334 -9.20967
head 2.34543 14.4661 -3.11074
rclavicle 1.65389e-013 -6.55989e-014
rhumerus -40.2422 -15.5327 -66.8046
rradius 101.83
rwrist -17.5365
rhand -12.122 -28.2136
rfingers 7.12502
rthumb 13.9394 -57.7264
lclavicle 1.65389e-013 -6.55989e-014
lhumerus -46.7279 -49.25 91.8748
lradius 67.823
lwrist 18.7227
lhand -6.36912 -5.87934
lfingers 7.12502
lthumb 19.4775 23.1651
rfemur -24.8308 0.93226 24.3856
rtibia 14.6416
rfoot -7.72208 -11.8848
rtoes -1.45962
lfemur -26.548 0.565206 -16.5431
ltibia 50.621
lfoot 23.8127 -10.2287
ltoes 26.3791
550
root 8.38824 18.102 12.5041 -170.347 -10.3424 -177.355
lowerback 4.73001 6.16196 6.27222
upperback 3.22398 8.2606 -4.12756
thorax 2.24738 4.276 -7.94528
lowerneck 4.78739 21.3151 5.75808
upperneck 1.61253 28.8043 -9.63227
head 2.16021 14.4763 -3.32033
rclavicle -3.75703e-014 2.62396e-014
rhumerus -39.6918 -15.2845 -67.4968
rradius 101.344
rwrist -17.7165
rhand -12.7855 -28.6763
rfingers 7.12502
rthumb 13.2999 -58.2319
lclavicle -3.75703e-014 2.62396e-014
lhumerus -45.6352 -49.2257 91.3153
lradius 67.6593
lwrist 18.5252
lhand -6.09694 -5.77303
lfingers 7.12502
lthumb 19.7392 23.2447
rfemur -24.7224 1.91714 24.36
rtibia 15.4224
rfoot -8.67277 -12.7862
rtoes 0.0667573
lfemur -27.0605 0.758506 -16.4691
ltibia 51.1687
lfoot 24.302 -9.30294
ltoes 29.4551
551
root 8.40348 18.094 12.683 -170.616 -9.86589 -177.272
lowerback 5.07333 6.32251 6.14946
upperback 3.35729 8.46759 -4.09474
thorax 2.21201 4.37263 -7.87151
lowerneck 4.93044 21.2834 5.35965
upperneck 1.47233 28.7188 -9.11966
head 1.93148 14.438 -3.17638
rclavicle -9.48203e-014 -9.54166e-015
rhumerus -39.103 -14.8861 -68.2067
rradius 100.709
rwrist -18.0499
rhand -13.4719 -29.0581
rfingers 7.12502
rthumb 12.6383 -58.6558
lclavicle -9.48203e-014 -9.54166e-015
lhumerus -44.8302 -49.2895 90.8585
lradius 67.6485
lwrist 18.411
lhand -5.84425 -5.25365
lfingers 7.12502
lthumb 19.9821 23.739
rfemur -24.7856 3.56903 24.2048
rtibia 16.7872
rfoot -10.0939 -14.4183
rtoes 1.34214
lfemur -27.7114 0.982492 -16.4268
ltibia 51.6565
lfoot 24.4223 -9.80581
ltoes 27.8031
552
root 8.41413 18.0794 12.8577 -170.805 -9.40983 -177.077
lowerback 5.24868 6.48982 6.27026
upperback 3.44648 8.69303 -4.10488
thorax 2.2724 4.49079 -7.96047
lowerneck 4.94589 21.1431 5.63579
upperneck 1.59068 28.5575 -9.31108
head 2.03149 14.3573 -3.26036
rclavicle -8.94531e-015 1.31198e-014
rhumerus -38.6453 -14.3613 -68.977
rradius 100.079
rwrist -18.5179
rhand -14.5863 -29.6185
rfingers 7.12502
rthumb 11.5638 -59.2795
lclavicle -8.94531e-015 1.31198e-014
lhumerus -44.3181 -49.3748 90.4453
lradius 67.868
lwrist 18.435
lhand -5.7939 -4.47049
lfingers 7.12502
lthumb 20.0305 24.5171
rfemur -24.9531 4.13577 24.5272
rtibia 18.3814
rfoot -10.5525 -14.4429
rtoes 0.295519
lfemur -28.6134 1.24937 -16.351
ltibia 52.2277
lfoot 23.9261 -11.6129
ltoes 20.0842
553
root 8.42041 18.0607 13.0291 -170.929 -8.96123 -176.992
lowerback 5.22629 6.636 6.2662
upperback 3.59026 8.87455 -4.11342
thorax 2.47213 4.58953 -7.94991
lowerneck 5.02092 21.0778 5.72884
upperneck 1.76879 28.4807 -9.22496
head 2.07285 14.3175 -3.24866
rclavicle -4.21423e-014 -1.03368e-014
rhumerus -38.0206 -13.7526 -69.7552
rradius 99.3921
rwrist -19.1183
rhand -15.5532 -30.2735
rfingers 7.12502
rthumb 10.6312 -59.9845
lclavicle -4.21423e-014 -1.03368e-014
lhumerus -43.6378 -49.288 89.9656
lradius 68.0403
lwrist 18.4329
lhand -5.9056 -3.82399
lfingers 7.12502
lthumb 19.9231 25.1748
rfemur -25.196 3.39529 25.033
rtibia 20.0295
rfoot -10.6132 -12.9062
rtoes -0.581413
lfemur -29.4719 1.29381 -16.3864
ltibia 52.8005
lfoot 23.4473 -12.571
ltoes 14.3775
554
root 8.42743 18.0366 13.1977 -171.026 -8.36521 -177.175
lowerback 5.24854 6.81145 5.95287
upperback 3.71653 9.07858 -4.23072
thorax 2.60046 4.68691 -7.89031
lowerneck 5.37057 21.0902 5.63146
upperneck 1.18823 28.4742 -9.26332
head 1.81053 14.3353 -3.33414
rclavicle -4.51241e-014 -8.34896e-015
rhumerus -37.4045 -13.1503 -70.6483
rradius 98.7754
rwrist -19.7238
rhand -16.1524 -30.8389
rfingers 7.12502
rthumb 10.0531 -60.5788
lclavicle -4.51241e-014 -8.34896e-015
lhumerus -42.8385 -49.008 89.3874
lradius 68.1447
lwrist 18.2939
lhand -5.92246 -3.04002
lfingers 7.12502
lthumb 19.9069 25.9604
rfemur -25.5322 2.48679 25.2452
rtibia 21.7559
rfoot -10.8932 -11.0635
rtoes -0.226335
lfemur -30.1704 1.22624 -16.6452
ltibia 53.3541
lfoot 23.4166 -12.1863
ltoes 14.7126
555
root 8.43605 18.0216 13.3647 -171.13 -7.67289 -177.407
lowerback 5.40647 7.01538 5.6134
upperback 3.73314 9.32641 -4.42869
thorax 2.55486 4.79835 -7.92747
lowerneck 5.13076 21.1232 5.68298
upperneck 1.89169 28.526 -8.68347
head 1.99912 14.3387 -3.0982
rclavicle 6.12257e-014 -6.52014e-014
rhumerus -37.0121 -12.547 -71.6838
rradius 98.2374
rwrist -20.1386
rhand -16.9351 -31.6081
rfingers 7.12502
rthumb 9.29792 -61.3831
lclavicle 6.12257e-014 -6.52014e-014
lhumerus -42.4269 -48.7049 88.9208
lradius 68.5012
lwrist 18.5149
lhand -5.77606 -2.39763
lfingers 7.12502
lthumb 20.0476 26.5881
rfemur -25.8875 1.81054 25.3298
rtibia 23.5759
rfoot -11.1928 -9.33947
rtoes -0.743409
lfemur -30.7998 1.24709 -16.9645
ltibia 53.8309
lfoot 23.3857 -11.6592
ltoes 15.8189
556
root 8.44427 18.0017 13.5302 -171.312 -7.14012 -177.453
lowerback 5.6116 7.19107 5.5726
upperback 3.70997 9.55455 -4.61695
thorax 2.48767 4.90891 -8.12935
lowerneck 5.37368 21.1061 5.96377
upperneck 2.17317 28.5177 -8.34779
head 2.0389 14.3342 -3.04544
rclavicle -1.98785e-015 5.48646e-014
rhumerus -36.6195 -11.968 -72.7103
rradius 97.6291
rwrist -20.6109
rhand -17.7385 -32.3269
rfingers 7.12502
rthumb 8.52268 -62.1349
lclavicle -1.98785e-015 5.48646e-014
lhumerus -42.2558 -48.7021 88.5422
lradius 68.9638
lwrist 19.146
lhand -5.75891 -2.0776
lfingers 7.12502
lthumb 20.0641 26.9064
rfemur -26.0531 1.2462 25.5746
rtibia 25.4109
rfoot -11.4474 -7.96323
rtoes -0.966336
lfemur -31.3751 1.18891 -17.0898
ltibia 54.2867
lfoot 22.9729 -11.5713
ltoes 15.1669
557
root 8.45287 17.9744 13.6899 -171.556 -6.79158 -177.337
lowerback 5.70938 7.25828 5.67925
upperback 3.76575 9.64242 -4.68622
thorax 2.54177 4.95766 -8.26873
lowerneck 5.56286 21.0903 6.01213
upperneck 2.20567 28.4944 -8.17297
head 1.99465 14.3249 -3.0256
rclavicle -9.78021e-014 3.49861e-014
rhumerus -35.9054 -11.0986 -73.6877
rradius 96.8214
rwrist -21.0414
rhand -18.4171 -32.4992
rfingers 7.12502
rthumb 7.86773 -62.3328
lclavicle -9.78021e-014 3.49861e-014
lhumerus -41.9989 -48.5438 88.1869
lradius 69.3496
lwrist 19.5399
lhand -6.1273 -1.62763
lfingers 7.12502
lthumb 19.71 27.3931
rfemur -25.9804 1.02742 25.8959
rtibia 27.1483
rfoot -12.3748 -7.29776
rtoes 2.33947
lfemur -31.8459 0.884349 -16.9787
ltibia 54.7475
lfoot 22.6888 -10.9757
ltoes 17.1519
